/* XPM */
static char *OR6ILL0__1_1725975459[] = {
/* columns rows colors chars-per-pixel */
"64 64 256 2 ",
"   c #18004B",
".  c #1C0154",
"X  c #1D025B",
"o  c #140157",
"O  c #0F0150",
"+  c #24014B",
"@  c #38014C",
"#  c #230054",
"$  c #2C0154",
"%  c #23015B",
"&  c #2B015C",
"*  c #2A0A5E",
"=  c #320155",
"-  c #34015C",
";  c #3C015C",
":  c #3B0255",
">  c #1B0064",
",  c #1C016C",
"<  c #150168",
"1  c #1D0174",
"2  c #1B0279",
"3  c #0D016F",
"4  c #240164",
"5  c #2C0164",
"6  c #25016C",
"7  c #2C016B",
"8  c #290A6B",
"9  c #330164",
"0  c #3B0164",
"q  c #34016C",
"w  c #3B026C",
"e  c #380B68",
"r  c #230273",
"t  c #2D0173",
"y  c #24017B",
"u  c #2C027C",
"i  c #2B097A",
"p  c #340173",
"a  c #3C0173",
"s  c #3C0B73",
"d  c #33027B",
"f  c #3C027C",
"g  c #330B7C",
"h  c #3C0B7B",
"j  c #350B74",
"k  c #391578",
"l  c #34146D",
"z  c #3A217D",
"x  c #430054",
"c  c #43015C",
"v  c #4A035C",
"b  c #52015C",
"n  c #430163",
"m  c #4C0363",
"M  c #44026C",
"N  c #4B026C",
"B  c #440A6C",
"V  c #490A66",
"C  c #540265",
"Z  c #54016D",
"A  c #59076D",
"S  c #48136B",
"D  c #430173",
"F  c #4B0274",
"G  c #440B74",
"H  c #43027B",
"J  c #4B037C",
"K  c #440B7C",
"L  c #4C0C7B",
"P  c #4B0B74",
"I  c #540272",
"U  c #5B0374",
"Y  c #53037B",
"T  c #5B037C",
"R  c #550B7B",
"E  c #5A0B7C",
"W  c #550B73",
"Q  c #4B127B",
"!  c #481678",
"~  c #54137C",
"^  c #571779",
"/  c #551365",
"(  c #620D7B",
")  c #660679",
"_  c #661779",
"`  c #680671",
"'  c #4A227E",
"]  c #57227E",
"[  c #69257C",
"{  c #290286",
"}  c #340284",
"|  c #3C0283",
" . c #3C0A83",
".. c #33028A",
"X. c #3B038C",
"o. c #380B88",
"O. c #3B1486",
"+. c #340294",
"@. c #3A0596",
"#. c #3A1696",
"$. c #2D0093",
"%. c #3D05A4",
"&. c #440283",
"*. c #4B0384",
"=. c #420B84",
"-. c #4C0C84",
";. c #43038C",
":. c #4C028B",
">. c #440B8B",
",. c #4B0B8C",
"<. c #540284",
"1. c #5C0284",
"2. c #530B84",
"3. c #5B0B84",
"4. c #53028B",
"5. c #5B028C",
"6. c #540C8B",
"7. c #5C0B8C",
"8. c #441283",
"9. c #4B1485",
"0. c #4B138D",
"q. c #471889",
"w. c #541384",
"e. c #5C1484",
"r. c #54148C",
"t. c #5C138B",
"y. c #521B8B",
"u. c #591B87",
"i. c #430293",
"p. c #4C0293",
"a. c #4B0B93",
"s. c #44039A",
"d. c #4B039A",
"f. c #470B99",
"g. c #540393",
"h. c #5B0393",
"j. c #540C94",
"k. c #5B0C93",
"l. c #53049B",
"z. c #5C049C",
"x. c #540C9B",
"c. c #5D0A9B",
"v. c #4B1494",
"b. c #491898",
"n. c #551294",
"m. c #5B1394",
"M. c #551A94",
"N. c #5B1B94",
"B. c #55139D",
"V. c #5B139C",
"C. c #5B1B9B",
"Z. c #541A9C",
"A. c #620383",
"S. c #640C84",
"D. c #62038B",
"F. c #6B038B",
"G. c #640B8C",
"H. c #6A0887",
"J. c #74088B",
"K. c #631384",
"L. c #63148C",
"P. c #6A148B",
"I. c #631B8B",
"U. c #691A88",
"Y. c #75178A",
"T. c #630393",
"R. c #620D93",
"E. c #6B0D94",
"W. c #63039A",
"Q. c #6C039B",
"!. c #690999",
"~. c #760999",
"^. c #641493",
"/. c #6C1394",
"(. c #631B94",
"). c #6C1B93",
"_. c #64139B",
"`. c #6A149B",
"'. c #651C9B",
"]. c #6B1C9C",
"[. c #751798",
"{. c #472489",
"}. c #562489",
"|. c #4A2296",
" X c #572597",
".X c #5A3297",
"XX c #593389",
"oX c #68258B",
"OX c #76268A",
"+X c #672698",
"@X c #74239C",
"#X c #772796",
"$X c #653398",
"%X c #773295",
"&X c #62308F",
"*X c #4A07A5",
"=X c #5C0BA4",
"-X c #5C0BAA",
";X c #5706A5",
":X c #4B18A3",
">X c #5B1BA2",
",X c #5717A9",
"<X c #5B19B6",
"1X c #5209B4",
"2X c #6809A7",
"3X c #7609A6",
"4X c #6313A4",
"5X c #6C14A4",
"6X c #6A1BA4",
"7X c #631AAA",
"8X c #6617A9",
"9X c #7314A3",
"0X c #731CA4",
"qX c #791BA4",
"wX c #7718AB",
"eX c #7608B3",
"rX c #6718B7",
"tX c #7717B5",
"yX c #6606B7",
"uX c #4C23A8",
"iX c #5B24A3",
"pX c #5928A7",
"aX c #5827B7",
"sX c #5934A6",
"dX c #6B24A4",
"fX c #6726A8",
"gX c #7626A8",
"hX c #6631AB",
"jX c #7633A9",
"kX c #6827B6",
"lX c #7927B6",
"zX c #6737B8",
"xX c #7434B7",
"cX c #6617C4",
"vX c #761DCD",
"bX c #7827C4",
"nX c #7935C4",
"mX c #6F25C0",
"MX c #5E21C7",
"NX c #7044C3",
"BX c #6C44A5",
"VX c #860C97",
"CX c #831396",
"ZX c #832899",
"AX c #852A90",
"SX c #8717A9",
"DX c #800BB8",
"FX c #8518B9",
"GX c #880CAB",
"HX c #8426A7",
"JX c #8625B5",
"KX c #8734B9",
"LX c #8E30AE",
"PX c #891AC6",
"IX c #8530C9",
"UX c #9442A8",
/* pixels */
"zXP - | c.N Y | 2 kXHXP.| &X3XX.+.,X$ T T q 1 g.2 r 5.rX1.[.V.< 2 K %XKXh.1X*.M p.| 7.jXxX: U J.[.d.o.eXD.*.cXrXsXv.D < h.;X*X%.",
"V ) <.{ i OXu.>.;XK S.F 4 e <.d f 9.p a k.m.. =.4 h lXFXd.F K.uX5 n V W ~.~.J.L > }.P.e.! R C CX3Xi.; 7X7XB.uXG V G 4.g.H.F | ,X",
"v T 4...t M.9.X.X.5 <.7.L H v.i q ) H f 2.w.s =.M -.fX3.|. XoXC.3.S.W C [.VXHX^.r t.2.Y J j 7./.F.J ~ 0.0.0.v.S : W tXrX<.9 h hX",
"q.7 7 *.c.1 { d 4 e =XgXqX=XpXo.d T.1.1.F M >Xg.:.H 0   .XKX).F wXbX[.) +X9X].5X-X1.| l.2X, :Xx.N N pXK a | *.+XW S.JXzX0.p } uX",
". X o q PX8 X D S.h }.[.F.M 4.i.@.@.T.~.X.2 T.;Xd f h.- ] k d W.fX X~ U ( t 6 n.KXJ A.F.5XzX# ;.d.d u ].rX*Xi.[.,.a C s.hX:X} 7 ",
"d 0 F 5.G F 1.1.F 1 7XJX#Xb aXZ.H ;.%XG 0 1.gX{ 2X9XC.@X}.}..XOXJ J.) 0 >X, #.xX@X5 # F `.hX/.Q.p.u 4 - w l.4XCXA.&.X.n AXm.i.k.",
"<.0 w W.|.9.7X>X5 v.M.dXqXh.V.>.p a l 4 L ).E X.;.J Q 0.E L.).E.~ <.H M E.e k C.OXR 0 T 3Xw._ /.c.d = & K B.g.G.h.W.`.p.K x.-XK ",
"/.,.f &.N.b.>X8.% '.=.k.qX5.g.v.v.K $ *.I.! # | r 5 N a 4.T.D.h.(.Z.>.F D.e.p h %X~ S.2.<.I _ [.6X2.0 0 N.+Xa p.=X9XSXcX, f.7Xj ",
"pXkX:X7 0 Z.-.- * J i.5._ : <XxXhX,XJ.GXG.$   f 7 p <.5.>X*Xd.w.*XxXgXJ s.tX*.g iX6 r.l O *.ZX~.`.oXf D K.).7 z.N.N.2XtXe 8.<Xc.",
"% + ^ gX6 M o.b.I.<X=Xa . } sXO.5 w DXZ I.jXC p $ m 1.2 U ; l .Xy K }.q.& Z a t N 0 p $ & ;XJX) W +Xp *XW.U > @XL 5 p P 0 *.G.K.",
"4.P B k XXw D N w 2XJ M F 5 qXeXg.w gX:.3.E $ p.0 M p.$ t y | 4X>.X.*X=X}.*.D.T.k.u.`.F.` /.1.Y ) 3.p +X(.w $ a f Y Y.,XF *.g.9.",
"h.`.n. .}.X.R.S.a 9X9.K H p =X3XT.=.fXx.H 0 0 7.J 6.].e.9. .f.x.Y j.:Xx.OXh.R.5XtX&XtXeXY.J.'.j.<.F @.#Xw.a E & a j.`.9.3.!.2X-.",
"| 7XdX7.a i.rX0Xp.kXuXg 9 X.;.F F >.<X;X;.*.F.T z.`.%XHXOX(.b.>.T U.M.b.K.4.N. X-X Xk.c.6XH.lXB.| a #.~.7.-.VXw d s.f.: e.9X!.D ",
"..sX}.C w.M.T.4.X.:X@.u s M._ B 9 q w.f.7XHXE.*.<Xv.$ h.AX6X;Xj.eX) I g.| f ^.'.d i.D S .XrX&.f >.9.% ~.FXjX_ b.+.f._.F 9 H D . ",
"2X_.2XeXU.a 9 -.gXG.D 0.hXkXkXL # y g.*.7 e H.q G _ [ A C 1.T.-.0.A.J ..rXn U -.> H 7 X.l.R a q a q # + u.&X. 9 I.@Xn.W.a.-.M % ",
"tXY h.bX>X>Xa 9 ~ k.>X X}.S.G ~ 3.K i.W.*.f W.9 :.2XgX`.#XHX`.H :.:.2.t.y.E.OXI.T 3.n w f 5 a 6 7 F d.$ - l O }.+X Xm.kX>.p a f ",
"I.2./.0X:XjX9.5 p X.:XM.R C R e.( Y | g.<.J h.^.4Xl.j.xXjXfX4X<.2Xp.^.+Xj dXjX[.F.m.n V P q &.6 e S.-XU 0 6 q C.N.N.}. Xa 0 a b.",
"M qXqXE oX%X8.} *Xr p *.1.<.lXe.; 0 N u p n Z KX0Xn $ $Xj } s.2X;Xz.c. XX.|.8XQ.J ;Xt ^ #XJ 2XH P ).n VXE.*.A.d U P.}.@ D N *.uX",
"5.2.V.kXxXeX5 # R.S `.3.M ;X<.u.u.p  X-Xl.p O ) 1.t < X M f } o.$.0 v ) lX7  .>.7 HXC ( Y.+ &X0.5   & 9XR.q a fXu.V m k.JXwX-X1X",
"5.J C T f.D ] XX,.W.&.% = 5X; J 4.N s.aX7X,.5 N V.iXL o :XB.;.5.R x - @.hX7 *.h.q G F <.2.XXpXZ.-.g.;X+X].W.J +X Xn.:XzXm.7.L n ",
"i.4.F D 7X^ }.pXZ.f C.! 9 7.c /._.H *. .7X6Xq H x.-XE.=.8.o.f Y 9X6XO.t U.p ,.G.F Y P.`.2XwX_.`.c.X.;X+XM.;.1.jXL.V.fX! | p e -.",
"f.c.p.o.ZXOXB.*XsX* hXC.a D e.@X^.a 7.a 3.0X| d.| i.Q.t.M q p F 4XaX#.& Z i.6.3.H ~.Y.gX8XQ.[.SXc.d -.].8.4 Y FX2.T [.: p.p 9 -X",
"hXS.g.f.x I s.-XHXzX2 7 N e jX}.c A xX7.U H.,XC.h } d.: t.G 0 F 7 < 8 l < #.k.J $.4.:.Q S / ZXt.4.[.gXI ! }.J ) G h 1.:.eX4.9 M ",
"fX..:XnXaX-.% * [ u.8.d s %XN.;Xl.w.*.u J ) Q C  XN.U j.Z !.=X3 u c a X.*.c U. X4 jX2X5.*.g.- pXbX2XKX&.u.%XhX8XSXw.1 yX5XJ.H.{.",
"XX,.f k $Xc.D M S.$ 5 t :.SXE.x...8 3Xw.u.0XkXU.gXlXL.d J Q.4Xz j.w g #.E u.N.(.oXk 7 f.<X2X2.m.r.M wXk.Z.}.e =.N ^ dXyXhXK.1.'.",
"9.^.4.e ] *.F ) F.H 0 0 F p.k.j.o.4 ~.e.C.kXtX%XJXlXC.0 T.W.2.{.P.3.j.<X+Xk  .j.).$ B q.Z.lX=X| & c dX+X'.,.e J G ^ dXfX}.G *.[.",
"_ `.9X_.Q $ n 1.Q.DXH.b : 8 d M.r.0 D  .#.s.:.+X8X8Xv.U 9X@Xq.u W Y.3X2XkXX r ..q v #XW = KXb.{ t 3.%X&X3.F.gX5.].r.p %XF d o.oX",
"9X1.0 > 2 w.).=X;XSX:.G [ AXm C.kXd.a N.>.y 6 0 3.a.u 9 uXPXFXg.&.s.l.H.n h.} t -.r f H Q sXv.k.(.XXg.a e Y VXY | f <.lXDXd.g ^ ",
") 5.H : = ; U Z X = p.4X/.OXC C.7XU 6 rXk.f d.Z ~.k.0 U.6.H L 6X>.>XhXdXP.iX7.F.eXt 0 q q F u '.@X!.6X^ '.`.b &XM.>.o. .Y 2.~ M ",
"J fX>Xp v n 5 e ^ W >.g.H._ T ).e.q h >XR : @.'.E.:.u !.U.a r 2.U -.r.M.L a.&.T.GX5 = w *.u.].qXSXqXP S.7.G x r.2Xc.=.2 d ].+X7 ",
">.gXkX#.H J 6  .gXY.w 0 1.A.2X).R i *.9.S B { pXc.a.#.*.#Xq.y R ` Y g.5.s G a 9.H.5 = Z /.6XHXDX3X&X9 *.p $ I H T.A.M 1 f ^.N.a ",
"dXH.CXnXX.p.4.3.}.@ $ 7 | 2XtX-Xd.>.w D C.pXX.d.8XkXsXq :X|.u.ZX^ dXFXtX@X9 ^  X..*.M W U.<.7.z.&.- Q 1 7 E 3XY v c 9 + v x c T.",
"x N _.rXu y 9 B ! 0 $ 4 6 ; jXLXI.D M W.*.7 ;.E.kX.X^ | -Xg e HX<.(.lXbX8X} t p q m.D m.PXW.Z.N.a.+.l.= ; <.=XF.) Y g.#Xf j.gXSX",
"q.gXI.0 1Xi.0 m 9X7Xw B I.^ ! `.2Xp.J d C.tXz.lXL.G g o.i.=X_.j u ;.(.}.y K i.f. X;XX.J S.T.=.u y ..H l.5.5.x.*.(.Q 5 R pXxX$Xt ",
"b.lX].G l.a.q V ZXlX4.w.).) & f g.l.2X5 e.KXkXZ.G 5 y  .u ;.j.| +.| K ! j /.>.h (.eX| a Y h f p t H 5.s.=X2X7.;.].u.5 E Z.XXk r ",
":.1.^.aXJ 9.d G Y.5Xz.V.(.v e - 0 l.2XF W AXhX5 9 f &.K t , D tX;XH H -.oXFXP $ Y dXL 8.f.4 f <.Y *.rXJ 6.-X| p.W.h.b.Y.8.% 4 i.",
"R.N 0 ,.mX#XH.D.6.<.i.pXhXI _ v q j.D t d p = Q Y.J.G.e.{ a.SXlX[.0.>.1.}.P.^ ! 0 J %X+XD F f 4.p.@. X~.U 5 X J > i :X#.:XO.7 J ",
"KXQ , | v c ~.`.& H | p / $X#XOX+Xn.0 Y.fXb.K c.Z v W ).hX7XW.4XK 4 o.aXhX*.N.}.q HXG.0.iXuXmXP c 4.kXM.'.[.G.5 = m L g rX-X,XkX",
"Q b.+.d U.x J ;.  t t $ @ 0.7X@Xu.G c Y.U.G f iXP F g.B r.+XdX3XI P N.<XtX'.HX+Xa FXm.j k gX6XQ W !.rX>.P E 0XD &.f $ 0 f *X4XB.",
"s >.v.m.dXH.K } j p q = = ;.=Xw.V n c ( S.) D.6XG J ;XG q 8.oXE.H.K.^.5X2X@X#X/.1.gXw.5 4 K.*.>.M.wXyX&.e ! V.H.g.| e Y h k.W.p ",
"lX8 G HX}.JX5Xx.fX5.v - X.h.'.V ; 8.F d 2XPXGXGXd p ~.FX{ t 9 q 3XX.4.[.:.Y p *.VX}.i t p r d.@.:XkXh.k &XjXH F.4.w.oXyXJXgX5.a ",
"+ 8.#.d ) $ U F.g.| < b.zXr.Y.oXq.*X+.+.u q Y m r *XDX-X+X9.a 0 ' 2.J D d dXrX..< r 3 O.OXY = T 5XuX: 6.tX0X4.r H J p Y s 4.4.. ",
"XXS >.*XN = : C ~.=X*.-.y.M. .3.,.{ *X| t 7 a v & 6 ;.|.4.g.k.~ L G.Y.)...a.aX:Xd >.C.+XI.H ^ _ L.G.;.<.J.!.4.# f | 9 g.SXw.4 > ",
"{.% h ,XM 9 V U.gXM.4.6.y.O.f F P q.g.p.6.y.f : @ 0 @.u.B.x.k./.5.<.6.7.d :.yX7X;X=.K.@XfXw.B ! Q w ..n.S.U f M ;.| q m.wXR.<.9.",
"& t o.0.N h t.dXpX' >.n.w.> 3.D ! $XJ k.].+X>.; C Y p.w.iX=.H 3X3X;.} | 0 p.2XeXrXG F 4XlXS.# G >.r 6 b.w.I d h.;.p K 0.q.5XGXHX",
"/ 5X-Xf p 2Xl.q c A *.H e - AXx.o.! a y.m.&.9 U.2X;.% *.9 < g hXH.Q.yX=XT ..x.rXlXAXi.;X3XN X F `.7XY 5 h 7.H.Y = c A.2 |.hX0XVX",
";X,Xb.7.{.wXQ.x.aXgXhXb.{ < X N.>Xu # 2XeXl.{ % a Y W N.cXh.^ zX3X:X8.H u KX(.F F :.,.h.2XNXL *.c.+XlXJ a j.;X: ).6X} S p.h.<.;.",
"+.} Z.kXy.eX~.<.s W 2.| t $ & v.0.= 5 F.~.7.} Z.G D V.HXc.a w I.qXhX>XT.<X^.W n N 4.F.3.2.N.=X2Xz.9.qXwXkXdXI a 6XaXb.'.-.I.L.f ",
"{ i.`.gX<XgX_.2.S Z g.,.M M 6. .e x G Y S.'._.rXt.w.,X[.F } g v fXpX:Xl.tXF Y k.Q.J.G.7.&.= s.h.<.>.1.FXIXhXW } C.dXr.~.L 9.M.;.",
"} tXGXA.rX+XZ.uXjX4XcX9X7.p.dXB $ w U.F -.dXIX;.I.qXz.q J B.,X5 @.;.u { D.A 9XmXcXVXj.>.&.o , : C `.d.).)._.rXt ] _ c J.-...+.p.",
"2XwXjX$X( M H H 0 tX8X7X5XF ;.r 7 *.g.0 - 7 r m ) :.y = ZX_ c *.0XwX>.{ lXE.HX%X0 a C.r.0 $ *XW.U J bX*.d f : <.e t p.gXKX`.0 & ",
":.FXJXe.X .Xw.D #.>.7.<.H & a M 0 p +.,XB.X.*.b.<.f y y L.9X[./.K p 2.L.J OXW 5 f gX( U S.#XtX(.M.rXFXF y.iX$ H B.`.S.L * N Q.rX",
"M 4.j.L ; pX0.*.;X0 | &.a {.d n.6.& > 6XB. .Q. .8.=.{ | '.SX3XA L q <.L.r G y.8.H kX0X5.5.[.n.i O.4XY H a.n.M 4 '.qXT F 9 t.wXtX",
": B  .| C >XZ.x.W.L ,X>.-.NX..:X'.F 5 OXw.f 3Xw y.b.| J HXHX/.a /.,.6.k.t 9  X+XH 8.7X*Xf ) t 6 f *.% ;.p.j.F.% e.P.&.&.*.m.fXC.",
"0 #XlX,Xo K.%X X@.MXIX+Xe UXo.0 W fX:.u.r.g.5.B.k.1.H f E.[.0XIXyX7X7Xj.I OX^ p s.1 & q =.oX8 u.).@.| <.4XmXeXD K J } 3 | 0 l BX",
"4 4 t.9X< OXL.&.;.7.q.2.U.LXF - - 9 r p ,.j.- o i.:Xq.K.ZXE.5.=X:.3X0Xu.F.^ N 0 m K ).~.1.- p h M.$X&.t.5XT.u h.3X2.o @ Y 3XJXOX",
"{.}.`.VX{. X-.:.W.Z oX}.D S.N 0 0 M _.h J G.}.7 r.].^.7X2.F.A.p f ;.].%X% ^.>.u ;.:XC.0XwXp X #.pX3.k. .;.=XpX=.S.Y j m VXJ.( CX",
"}. XL.) &Xo.#.=X3XI #X).a 0 j.6.a.x.4X2.F E +XY 3.k.g.(.-.F I  .-.d N.ZX, G.=.+.uXf.#.V.`.| X {.hXj.-.d i.;X Xr e *.j.p ).W V @X",
"9 H 0 9 ^ } b. X*.3.J.SX`.8 6X,X<XcX..h.F w ).) 3.;.X.) c.p & 6X#X=.6.].b.<.M >.pXB h H N | 0 ~ hXpX5 H g.:.& t r ;.;Xr k w ! .X",
"5 f J U E.g.,.f % 5.;.V.JXrX. 5.DX7X*X+Xk j LXlXlXu.- B.h M n M *.g.} { pX,XJ M o.~ 0 9 X.1X7 iXxX'. .4.H 7  .) L.[.3X X=.f X.*X",
" Xg y :.~.IXw.% 1 p.2XlXjXZ.1.g._.N.1 wXQ > $Xh j L A.Y ..{ =._...*.e.}.7Xv.h p d wX9 H ;X| G 8 8 } *X:.f d f Q h.C.$XF.k fXnXkX",
"m.a.....3.e.3.D t wX>.r.oX X).N.q.=.O.,.0.M.pX- h >.<.HX%.f.m.h H w.r.>.H u :.k.r.tXg *.3X5XW *.:.*.*XZ.a.i.H K q K dXl.s y.(.q.",
"7.4X*.< f H 5.7.L 0Xg G /..X$X+X>.6 ~ a q.fX6XV x.=X7.IXb.fX[.& I m.a.h : d :./.dX-Xi.H F.tXJ 4.c.^.,.{.b.l.a Y 0 M 7.#.w 9 q 0 ",
",XwXQ   } cXB.e.$X9 XXoXD.C.jXyX@.% $ ~ g k OX( 8XvXJXrXq.y.^.J O.@.;XR.~ *.a G C.:.;XH # - o.> r <X,.3 } 6.# A F.Y + h 6 > p 5."
};
