/* XPM */
static char *matrix1725975869[] = {
/* columns rows colors chars-per-pixel */
"64 64 22 1 ",
"  c #001707",
". c #021B07",
"X c #02160A",
"o c #021D0B",
"O c #02240C",
"+ c #022B0E",
"@ c #02320F",
"# c #033A0F",
"$ c #032510",
"% c #032D11",
"& c #033412",
"* c #043B14",
"= c #083812",
"- c #053618",
"; c #053D19",
": c #044216",
"> c #084317",
", c #034917",
"< c #05431A",
"1 c #084119",
"2 c #05491B",
"3 c #064321",
/* pixels */
"&&&&&*&@O@@+O.%-@-&O$+**OOo&%+&%++@&&OOOO+%O+&oO.&%;:&&O&%*=&&*+",
":<<:*:+&&&&&=+;*&-=O&&&*&++*%*;&&@:*<&&O++&+%&%%@;*22&**;*>*;**+",
"%+$&@%+@@@&O++--+&&+*@&*@+%+%:<*@*::::;O$+%%&&+&&**:&+#**#=#&&+@",
"%++@@+%&@+%-*;<:::&O&#&:&&+--<;*&@*:*&;+++$&;<&*&,*:-@*::;:&&@*-",
"oOO&&%+&O$&-:,:*:O$O&$+@+&++o;@@@@;*&#*+%$O&;#&@&&@+%&#:<%++&&&O",
"&-;;&&&:;<,,:#,:;#&@-&&-%**;+;<;&*::*;;%O+;1,,*:;*@:*#&,:&&##&-+",
"+-:#@@&;*:*::*>@+@&++Oo%&&&*OOO;#&&&**;OO%**,*&:O++*@@&*;@=#&#&+",
"%*-*&*::*;::::;&&%&@&&O--,:,&&O1;&:*:&;+%#**::&:&&&,:&*&***#*@*@",
"@&%-&,:*@:<*%+&&&%%&+%+&-:*:%&+*#::%;*;+%&&&+&&*+@*::&&&#@*%#@=%",
"&<%&&:&*&;&&;&**:@&@&%&;*&&:%&%&&*=@##;++&&&+*::+&@;;****-&+*@>:",
"@<%$o+%-&&$+-;<**@&@++&***&*+%@*##*#*::+++-&#;;;%&@*&::&@&&@*;:;",
"@&;<O+%&&%&&;2,&:+@#%++&&+%&%&&@%@:*;#&OO%**:*#:+&O&@:&@**:**::*",
";:#:O++&&%&@;2<*:##::*&&@++@%&&&#+-<:@&OO%==-*:<&*%&&*&@:@:*::2<",
"+;<1$oO&$+--&#*&:**#&&&*O+$=%@@**+&%&+@OO%&##;&&&*%%&*;+&#@&:+%%",
"%<<2&&&-++@*;*;&**##*&&-&%O&&%&**@+O+@&++-*##*@&&-%-*::+&:<;*$*&",
"O@&-#&&&++@O++-#*&&**@@*++o&%$%**%&OOOO++O&&&*@@@@%-#@%+++$O++*%",
"+;--%*,;+&&O%%**:**::&&;&&O+@;:22,:&&&&+%&:,:<&=&&@***=-&@@O%+&&",
"$&o&-,<<%$ooOo%%@++@*@#*%&oO+-*:<&#&%&&oO%;&:<+#O-@:;+$*@@@+%+&+",
"O&+&&<:&%&@;-@@+@+*@&&&=&+o++*&<,&*&&&&O&*-;;:+&+&&:;@+&*@&*&+*&",
"&&%OO&&@%&&&&+%+&&*@&#@-%+O@+<=;:;*&*&&O-&<:#*o=o@+&&+O+&@&-&O@%",
"+*;;&*%&%<<**+++<*#@&*&&&&&*O%-:*&&+%%&+++&&@=$@O&&::%O+&@&%@$2<",
"o+-*+&o@&2<*:@&%<**-*>##+&&;%OO-&&&OO.+$++OO$+O@+-%:<%OO&-*++&,;",
"o%**+%.OO&%+@+@+&%%&*&*=&&*&;&O;&*<&%oOO<*&&O@$$&+++%+oOO++OOO;&",
"-;=<+-%%%-&&&OO+$O%%&*>*@*::&-%1*&;O%%@&;*%$$&@=++&@%OO&&+&%+&&O",
";:*-o-%:-@*@-OOO@+&%%%%-+<::;*%+&&&O@@@%%+OO++O@%+&&oo%-%%@@@@+O",
"@**1&-&*+=*@&&&&*&**##-**:::1=++%+@+*:&+-%&&%+O&%@-&+O&;&&&+&;&+",
"&&&*+&&*@&;&&+*&&@#&&=&@=:;:#&O@+@&+-**$%XoOoOO+OO+O&O%;&#&+>;&O",
"&:<,-&@;;*;#&&<<;@&***&-*:><;&O&&&*-<**&%ooO&=*;&&O+++&*:&,&;=&+",
"@;:<&&+++OO+&&<:<@&@<***;:@*+%O&@#&&*@&O$oo%+;**@&O+OOOO&%@O@+O+",
"@&:,<<#*;&*;:&*;<+&@:-=*-;&*@<<-&*&#*@+.&%%&@&=#@&++@+++&*:+=%:-",
"&&#*-*@#+&&*&++O**&&&OOO.%+&&:*&@+%+&+OO@+%+@+++O%+++O+&**-+%o;&",
"&&@<:::;&:;#:@%O&@&%$+O+OOO1*<<&+&:::&&-<-*>&+O+O+++%+%:,&=OOO-@",
"+&@<<<<<&*#@:++O++&+&@+&OOo*=,1<&+****@%<&**&#%+O+OO+&**;+&OO%<-",
"&&+&&&&*@=@=;$$XOO&@-*@&o$O-&-*&+@*;*::+,:*;+++&O+OOO1=&*+@oOO&&",
"@&&&+@O*&:;;;O++++*&:#%&+++;&;*&&+*::*:&<<**%&*;$&O@-1&;;%-&$+&+",
"#*&@%&O@+@#++OO++OOO++O+OOo&&%oO%@@&*&;+**#+O;:>++o;%&*O&%&*-o&+",
"&:<,:<#&+**+#&&&&+&++%+&&&&&@%OO+@*-::*+#=;;@*:;+;;<:&&O@&&;&%:&",
"O-2:*,&&OOOo&-+%+%%oOOO%@+&@O$.OOO+O@+++;-&:&++&+#&*<%oo%+&O+$:#",
"O-3,::*,--&@*&**;%&OO+;*;*+%O=&O+++@@+:<2**>;;&-@22<*;-$$@@%%$:@",
"O&%*;#&*&&&+&##**++OO%*+#*%&O%$O+++++%;*-+O&#;O&%2<;&&*%O++OOO&+",
"&<&&&;#&*%&%&&*@*#&$$%;&&;%&$**#+O&::+:*:*+@&*;,+;;:@@&;*;**;&&+",
"&-++O&@&+@%&&@:#*-=o$%1**1o%$*#+O+&#;+:*;*&@#&&-O+$*&&@&@#*#@O+O",
"%%%-O@++++++*-:#*$%+=&&*&+++O&+$++#@@+;&:,-&&&@&OO$&&&#&&#&*;@%O",
"&&&-o+@+$+OO&;*++o+%;&&&+O++O++$%+&&&+>**,&@%*<<&&&&&&=;=:=;;+@o",
"O+O+.-&$&$OO&*:+&o%%:;&Oo@+OOOOOOO+++O-@@@++&;$;-,,:@@O&%&&&@OOO",
"%&O+O-++&&@O&:>=;%*&1;%%%;=*@&&*-%&oOO*=&+&&@-+&&:*<;:*%+++O++*-",
"&*+.o&+&#&%OO+@$@+&#&%+@&*==&&&::&%O.o++O%-@%&+-@;*-**<%++++O+;*",
"&*-&+::&+&%*=++O@+@*&@@-%&&*&&=****-&++O$%*@&&+*&::*;<,--@&+&;:-",
"%@&&$:**%%+#-OOO%O+@+o.%&*&*%*&&&@@&-OOOO+&++%++@@@*;@+O++++-*:*",
"::*:$**&@%&*>@%&@O+@OO--&&&*+,<:&@*::O%%&&&&&&+&+&&-:&-&&O:<:*:&",
"&&-:O&@+@+&==&O++$+OO%-&@*:*%<:-OO-&*%&+&%+&++O&+@+O+-&$++<;&***",
"@:**O@@-&;**;+;1,**&@=<*;<&,**:-+%*#;%&+<:*:%OO&++O+-2,:*=*&&&*=",
":<&&$%+Oo***<O**:&&++-<**>%*&=*&@@*,<o&&,:**%OX%+++@&<:#&--;:=&&",
"$&&%&&&%.%&*&+-*;&-@*-;*=::;+;:;@+&&&O&&-@@*&&OO+*@:<:<&:&&$*&>*",
"$&&&&&-#$+$&@@<>::*&@&&&;<;>*,<;&-*@&&-+**@*&;OOo&&&&:,@&O+O&@:&",
"&&&&+O+O+O.O&&-**@-@@#&*@++:*-&%O+++;;*&&%**<<oOo@+**#:&&Oo+:#@@",
"+@&:&%&&&&@&*;:**-**1;*<$+&1**&%++%+&*=&*&:;:2&&-*@:**:*:@-&<@*-",
"+&+++&@@@@@*&&;+%O@%3**2%%O-&+*%O.$+*&*+#&++%%%*&&%&&*<%&+<<;&&O",
"&-&**:<-%++&@&-++o+-1*;,%*+*&*&;;&;+&;:+:::=+&&**:%&:,<+@+*<&@&+",
"&&%:&,<<++&*@&&+%..O<&&:&%%+O*@&-#++&O&&:,**&&%**#++&&&+@@@++&&O",
":,*,*2:*+&&;**,#&oO%2:**;*;=O**:;*;&@+#%<:**<:&*:#*&+-*&&&#&<<<*",
"*<*<+**#&++%-&#+&oO+<,*@#@-;O@+<:*;$@O&+*&**::=&@@&&O+@&&++%,<,-",
"--&<;::,-**1;@:@@o@-<::<&;&&%;*;&&*&&&=&,,:***&<**&:&;<&*&<22;;&",
"OOO&#**;%+@#+@;+%O@$<&*<&&oO+&@+OO%+++&@>;*&O++=#&&@+&&O++*&*++o"
};
